Hanif_Medium_2_5_grf.mot
version=1
nRows=58
nColumns=19
inDegrees=yes
endheader
time	right_ground_force_vx	right_ground_force_vy	right_ground_force_vz	right_ground_force_px	right_ground_force_py	right_ground_force_pz	right_ground_torque_x	right_ground_torque_y	right_ground_torque_z	left_ground_force_vx	left_ground_force_vy	left_ground_force_vz	left_ground_force_px	left_ground_force_py	left_ground_force_pz	left_ground_torque_x	left_ground_torque_y	left_ground_torque_z
2.825000	-3.464350	236.620000	45.871100	0.234193	0.000000	-1.429860	-18.018400	-1.650170	8.126080	-6.473750	224.981000	-42.604000	0.228132	0.000000	-0.977039	16.715900	-0.359548	6.715030
2.830000	-3.714480	236.635000	45.566300	0.234750	0.000000	-1.430380	-17.897800	-1.645430	8.265180	-6.193040	227.023000	-42.623100	0.228450	0.000000	-0.977944	17.068300	-0.317887	6.833220
2.835000	-3.708170	235.097000	45.408600	0.235132	0.000000	-1.430010	-17.870400	-1.541530	8.324240	-6.032570	227.976000	-42.584700	0.228972	0.000000	-0.977965	17.142800	-0.297738	6.975430
2.840000	-3.443640	235.406000	45.699800	0.235619	0.000000	-1.429870	-17.928000	-1.368370	8.486290	-5.757080	227.900000	-42.185900	0.229832	0.000000	-0.979098	17.393800	-0.329007	7.173560
2.845000	-2.961010	236.812000	45.454500	0.234733	0.000000	-1.430000	-18.004000	-1.335330	8.315070	-5.841830	226.309000	-41.568600	0.229493	0.000000	-0.979037	17.259900	-0.342798	7.044190
2.850000	-2.611070	237.390000	45.315300	0.236721	0.000000	-1.429660	-18.128700	-1.394380	8.806590	-6.067170	226.725000	-40.941800	0.230869	0.000000	-0.979881	17.486300	-0.343369	7.373160
2.855000	-2.869380	242.067000	45.353000	0.236925	0.000000	-1.430290	-18.332500	-1.330390	9.043430	-6.430300	229.175000	-40.426600	0.230951	0.000000	-0.979762	17.649500	-0.304369	7.454720
2.860000	-2.910830	244.902000	44.807600	0.236553	0.000000	-1.428930	-18.880600	-1.328050	9.049550	-6.886860	232.903000	-40.902100	0.232478	0.000000	-0.979917	17.975900	-0.228443	7.930610
2.865000	-3.618580	245.825000	44.188900	0.236632	0.000000	-1.429390	-18.841300	-1.319240	9.108700	-8.014140	235.067000	-40.679600	0.233055	0.000000	-0.980566	18.306800	-0.188865	8.143140
2.870000	-4.329960	247.499000	44.082100	0.236653	0.000000	-1.429590	-18.922600	-1.305820	9.185730	-8.542140	237.402000	-40.625800	0.234311	0.000000	-0.981201	18.641300	-0.052569	8.507240
2.875000	-4.489890	249.711000	43.599800	0.238336	0.000000	-1.430580	-18.846500	-1.281430	9.700150	-9.473540	240.516000	-40.368000	0.235865	0.000000	-0.980914	18.829700	-0.098606	9.009440
2.880000	-4.932930	254.047000	43.531000	0.238010	0.000000	-1.429560	-19.434900	-1.249670	9.790390	-10.007300	246.023000	-40.629300	0.236409	0.000000	-0.980944	19.265900	0.047838	9.322590
2.885000	-5.152390	257.308000	42.929900	0.238203	0.000000	-1.428970	-19.837700	-1.233200	9.963980	-11.139900	250.346000	-40.645200	0.237824	0.000000	-0.982369	19.972100	0.124171	9.841980
2.890000	-5.489020	258.708000	41.953600	0.239353	0.000000	-1.429270	-19.869700	-1.207010	10.321300	-11.306300	254.383000	-40.997400	0.237955	0.000000	-0.981687	20.119800	0.125755	10.029000
2.895000	-5.541220	257.006000	41.252600	0.238692	0.000000	-1.429330	-19.725400	-1.034430	10.102400	-11.946400	255.358000	-40.761100	0.239042	0.000000	-0.982411	20.387600	0.204516	10.342600
2.900000	-5.550630	256.418000	41.107800	0.239634	0.000000	-1.429460	-19.647400	-1.052120	10.323600	-12.754900	257.036000	-40.523500	0.239361	0.000000	-0.982181	20.470400	0.225757	10.492400
2.905000	-5.688470	256.720000	40.174300	0.239951	0.000000	-1.428760	-19.854700	-0.946581	10.428100	-13.353600	260.531000	-40.305200	0.239973	0.000000	-0.981718	20.631700	0.260381	10.785700
2.910000	-6.681660	255.085000	39.726400	0.239902	0.000000	-1.428270	-19.855300	-1.030920	10.345700	-14.415200	261.709000	-39.783500	0.241029	0.000000	-0.982486	20.939200	0.293031	11.115400
2.915000	-6.680970	256.785000	39.094400	0.240957	0.000000	-1.429040	-19.793700	-0.902781	10.701800	-15.050600	261.444000	-38.544600	0.241507	0.000000	-0.982490	20.923500	0.340675	11.213800
2.920000	-6.467200	258.759000	38.923400	0.240288	0.000000	-1.429760	-19.757000	-0.852990	10.606800	-16.051700	262.972000	-37.918600	0.242610	0.000000	-0.983524	21.333900	0.312832	11.579500
2.925000	-6.481710	261.674000	39.171600	0.240653	0.000000	-1.429480	-20.055900	-0.802920	10.830300	-15.945100	268.186000	-37.751400	0.242703	0.000000	-0.982855	21.568200	0.325832	11.812800
2.930000	-7.156030	265.500000	39.416100	0.240576	0.000000	-1.429120	-20.449700	-0.756389	10.979600	-16.079000	271.465000	-37.217600	0.243503	0.000000	-0.983356	21.967900	0.309814	12.166100
2.935000	-8.296280	270.710000	37.760700	0.240696	0.000000	-1.429420	-20.775200	-0.694179	11.222800	-15.410000	274.409000	-37.152900	0.243502	0.000000	-0.983831	22.328600	0.228439	12.293800
2.940000	-8.242530	271.689000	37.118800	0.242162	0.000000	-1.428450	-21.116700	-0.667436	11.664800	-14.827800	278.159000	-37.191200	0.242507	0.000000	-0.983645	22.570600	0.181800	12.170600
2.945000	-9.399430	277.283000	35.917600	0.241936	0.000000	-1.428500	-21.547100	-0.541020	11.847600	-13.308300	280.904000	-37.100200	0.242605	0.000000	-0.983495	22.735100	0.038858	12.312900
2.950000	-10.004600	282.057000	35.448500	0.242171	0.000000	-1.427600	-22.175000	-0.515762	12.116300	-12.514200	281.990000	-36.864300	0.242593	0.000000	-0.985070	23.261900	-0.081733	12.361100
2.955000	-10.258900	287.981000	34.465700	0.242066	0.000000	-1.428510	-22.381100	-0.438174	12.330400	-11.782300	287.180000	-37.354800	0.242637	0.000000	-0.984310	23.459200	-0.097730	12.588800
2.960000	-10.033800	289.506000	34.301400	0.241602	0.000000	-1.428960	-22.369100	-0.291176	12.270200	-11.494300	291.857000	-36.567400	0.242238	0.000000	-0.984201	23.806000	-0.234824	12.667500
2.965000	-9.919680	292.358000	34.099400	0.242175	0.000000	-1.429690	-22.383100	-0.061440	12.579200	-11.085400	294.566000	-36.060600	0.241874	0.000000	-0.984813	24.202400	-0.324053	12.670300
2.970000	-9.422580	297.188000	34.457900	0.241199	0.000000	-1.428910	-22.980500	0.060025	12.499600	-10.757500	299.073000	-35.235800	0.242653	0.000000	-0.984694	24.531800	-0.383184	13.082200
2.975000	-9.146440	299.444000	33.726300	0.240858	0.000000	-1.429060	-23.109800	0.198124	12.491500	-11.015900	302.465000	-34.672600	0.241845	0.000000	-0.984915	24.879700	-0.486061	12.982100
2.980000	-8.646210	299.890000	33.628400	0.240131	0.000000	-1.430390	-22.739700	0.270260	12.289800	-10.784800	304.242000	-33.974300	0.241702	0.000000	-0.984349	24.849900	-0.529879	13.002800
2.985000	-8.135990	302.346000	33.825300	0.239255	0.000000	-1.430870	-22.780200	0.450925	12.135800	-10.868600	307.277000	-33.263800	0.241398	0.000000	-0.984939	25.280800	-0.636332	13.035000
2.990000	-7.857960	301.962000	33.655400	0.238693	0.000000	-1.430330	-22.916500	0.673614	11.970400	-10.755800	311.431000	-32.589700	0.241364	0.000000	-0.984255	25.407100	-0.724649	13.190500
2.995000	-7.272960	302.236000	33.227400	0.238486	0.000000	-1.431440	-22.597500	0.741589	11.913500	-10.453500	315.303000	-32.206100	0.240854	0.000000	-0.984415	25.770600	-0.857221	13.190300
3.000000	-6.338090	300.680000	32.712900	0.237484	0.000000	-1.430990	-22.609400	0.871035	11.550700	-10.263800	316.324000	-32.095800	0.240202	0.000000	-0.984720	25.949800	-0.943889	13.028600
3.005000	-5.831620	300.671000	32.500100	0.236189	0.000000	-1.432840	-22.050500	1.095740	11.172800	-9.340760	316.438000	-32.351200	0.239454	0.000000	-0.984769	25.966000	-1.050050	12.800800
3.010000	-4.628200	300.637000	31.698600	0.235743	0.000000	-1.432830	-22.039500	1.253780	11.033000	-8.945120	320.412000	-32.713700	0.239348	0.000000	-0.983613	25.918100	-1.166340	12.931800
3.015000	-3.567080	302.000000	31.290300	0.234518	0.000000	-1.433160	-22.031200	1.496290	10.718400	-8.509290	323.375000	-33.095500	0.238623	0.000000	-0.983542	26.129700	-1.245540	12.818100
3.020000	-2.805610	301.719000	30.069600	0.233290	0.000000	-1.434000	-21.752000	1.674740	10.331000	-8.756090	324.077000	-33.469600	0.237697	0.000000	-0.983380	26.138200	-1.324390	12.556500
3.025000	-2.002770	301.918000	29.675900	0.232320	0.000000	-1.433980	-21.765200	1.953640	10.058500	-8.379850	325.211000	-33.729300	0.237547	0.000000	-0.983199	26.169200	-1.455090	12.562600
3.030000	-0.602263	302.096000	29.449200	0.231284	0.000000	-1.434680	-21.552400	2.112110	9.750520	-7.857710	327.286000	-33.731400	0.236900	0.000000	-0.982364	26.055200	-1.487870	12.422600
3.035000	0.656693	305.886000	29.353100	0.230631	0.000000	-1.436480	-21.258300	2.349800	9.676930	-8.449550	328.508000	-33.936700	0.235992	0.000000	-0.982426	26.181800	-1.598020	12.184400
3.040000	1.624780	308.707000	30.206300	0.229426	0.000000	-1.436680	-21.382700	2.566910	9.411250	-8.833530	330.663000	-33.638700	0.235872	0.000000	-0.982276	26.307000	-1.580740	12.216300
3.045000	2.286800	308.070000	30.722500	0.228896	0.000000	-1.436530	-21.374800	2.684920	9.242340	-9.294300	330.644000	-32.791800	0.235234	0.000000	-0.982437	26.365200	-1.659430	12.002200
3.050000	3.129350	309.260000	31.117200	0.227872	0.000000	-1.437530	-21.139900	2.834770	8.970650	-9.593560	332.750000	-32.227600	0.235237	0.000000	-0.981774	26.316500	-1.732740	12.076000
3.055000	3.672560	313.549000	31.066100	0.227093	0.000000	-1.439020	-20.958000	3.084710	8.859530	-9.462310	335.376000	-32.190600	0.234181	0.000000	-0.981678	26.490900	-1.843600	11.817500
3.060000	3.889360	313.087000	30.604900	0.226122	0.000000	-1.439260	-20.849100	3.121200	8.536350	-9.384910	336.675000	-32.302500	0.233876	0.000000	-0.981683	26.597300	-1.986450	11.771500
3.065000	4.188180	314.813000	30.187300	0.225740	0.000000	-1.438080	-21.330800	3.320090	8.468860	-8.945490	337.947000	-32.019200	0.233151	0.000000	-0.981939	26.778200	-2.052790	11.565300
3.070000	4.070400	313.296000	29.342300	0.225174	0.000000	-1.439190	-20.881300	3.341440	8.243670	-7.610650	340.988000	-32.258600	0.232265	0.000000	-0.980809	26.617300	-2.198030	11.364300
3.075000	4.742460	314.136000	28.541700	0.223884	0.000000	-1.439400	-20.863200	3.482680	7.852590	-7.113160	338.274000	-32.008600	0.231545	0.000000	-0.981772	26.727500	-2.285540	11.035600
3.080000	5.669530	316.314000	27.687400	0.223676	0.000000	-1.440950	-20.504400	3.668590	7.835180	-6.048410	339.218000	-32.193500	0.230931	0.000000	-0.981176	26.587800	-2.398310	10.859400
3.085000	6.262290	319.538000	27.146800	0.223347	0.000000	-1.440010	-21.009100	3.761290	7.798470	-6.191900	340.212000	-31.663200	0.229513	0.000000	-0.980547	26.454200	-2.536580	10.408500
3.090000	6.823160	320.052000	26.641300	0.222432	0.000000	-1.440880	-20.755100	3.868530	7.514150	-5.551170	337.162000	-30.650700	0.229568	0.000000	-0.980323	26.134500	-2.562250	10.323700
3.095000	7.413770	318.760000	26.191400	0.222089	0.000000	-1.440940	-20.645800	3.874410	7.367360	-5.660740	334.265000	-29.098700	0.229126	0.000000	-0.981176	26.197500	-2.596380	10.074200
3.100000	7.490490	319.413000	25.718800	0.221075	0.000000	-1.441420	-20.533800	3.972020	7.056030	-6.329440	332.512000	-27.890100	0.228385	0.000000	-0.980596	25.876700	-2.664550	9.769410
3.105000	7.164100	319.320000	24.488000	0.220784	0.000000	-1.441470	-20.513700	3.984190	6.945970	-6.368880	329.904000	-26.442200	0.228005	0.000000	-0.979753	25.396900	-2.692170	9.553320
3.110000	6.103650	319.056000	23.354500	0.220661	0.000000	-1.441970	-20.352800	3.923400	6.886020	-7.161560	329.736000	-24.796600	0.227595	0.000000	-0.979838	25.423200	-2.761060	9.399540
